<svg width="44" height="44" viewBox="0 0 44 44" fill="none" xmlns="http://www.w3.org/2000/svg">
<circle cx="22" cy="22" r="21.5" stroke="white"/>
<g clip-path="url(#clip0_0_3660)">
<path d="M26.1667 32.0005C26.2764 32.0011 26.3851 31.9801 26.4866 31.9386C26.5882 31.8971 26.6805 31.836 26.7584 31.7588C26.8365 31.6813 26.8985 31.5892 26.9408 31.4876C26.9831 31.3861 27.0049 31.2771 27.0049 31.1671C27.0049 31.0571 26.9831 30.9482 26.9408 30.8466C26.8985 30.7451 26.8365 30.6529 26.7584 30.5755L19.9501 23.7671C19.4819 23.2984 19.2189 22.663 19.2189 22.0005C19.2189 21.338 19.4819 20.7026 19.9501 20.2338L26.7584 13.4255C26.9153 13.2686 27.0035 13.0557 27.0035 12.8338C27.0035 12.6119 26.9153 12.3991 26.7584 12.2421C26.6015 12.0852 26.3886 11.9971 26.1667 11.9971C25.9448 11.9971 25.732 12.0852 25.5751 12.2421L18.7667 19.0505C18.3787 19.4375 18.0708 19.8973 17.8608 20.4035C17.6507 20.9097 17.5426 21.4524 17.5426 22.0005C17.5426 22.5485 17.6507 23.0912 17.8608 23.5974C18.0708 24.1036 18.3787 24.5634 18.7667 24.9505L25.5751 31.7588C25.6529 31.836 25.7453 31.8971 25.8468 31.9386C25.9483 31.9801 26.057 32.0011 26.1667 32.0005Z" fill="white"/>
</g>
<defs>
<clipPath id="clip0_0_3660">
<rect width="20" height="20" fill="white" transform="matrix(-1 0 0 1 32 12)"/>
</clipPath>
</defs>
</svg>
