<svg width="20" height="20" viewBox="0 0 20 20" fill="none" xmlns="http://www.w3.org/2000/svg">
<path d="M17.5 0H2.5C1.83696 0 1.20107 0.263392 0.732233 0.732233C0.263392 1.20107 0 1.83696 0 2.5L0 20H20V2.5C20 1.83696 19.7366 1.20107 19.2678 0.732233C18.7989 0.263392 18.163 0 17.5 0V0ZM8.95667 14.4442C8.80189 14.599 8.61813 14.7218 8.41588 14.8056C8.21363 14.8894 7.99684 14.9326 7.77792 14.9326C7.55899 14.9326 7.34221 14.8894 7.13996 14.8056C6.9377 14.7218 6.75394 14.599 6.59917 14.4442L2.74417 10.5892L3.9225 9.41083L7.7775 13.2658L16.0775 4.96667L17.2558 6.145L8.95667 14.4442Z" fill="#4B4E68"/>
</svg>
