<svg width="44" height="44" viewBox="0 0 44 44" fill="none" xmlns="http://www.w3.org/2000/svg">
<circle opacity="0.5" cx="22" cy="22" r="22" fill="white"/>
<g clip-path="url(#clip0_0_3657)">
<path d="M17.8333 32.0005C17.7236 32.0011 17.6149 31.9801 17.5134 31.9386C17.4118 31.8971 17.3195 31.836 17.2416 31.7588C17.1635 31.6813 17.1015 31.5892 17.0592 31.4876C17.0169 31.3861 16.9951 31.2771 16.9951 31.1671C16.9951 31.0571 17.0169 30.9482 17.0592 30.8466C17.1015 30.7451 17.1635 30.6529 17.2416 30.5755L24.0499 23.7671C24.5181 23.2984 24.7811 22.663 24.7811 22.0005C24.7811 21.338 24.5181 20.7026 24.0499 20.2338L17.2416 13.4255C17.0847 13.2686 16.9965 13.0557 16.9965 12.8338C16.9965 12.6119 17.0847 12.3991 17.2416 12.2421C17.3985 12.0852 17.6114 11.9971 17.8333 11.9971C18.0552 11.9971 18.268 12.0852 18.4249 12.2421L25.2333 19.0505C25.6213 19.4375 25.9292 19.8973 26.1392 20.4035C26.3493 20.9097 26.4574 21.4524 26.4574 22.0005C26.4574 22.5485 26.3493 23.0912 26.1392 23.5974C25.9292 24.1036 25.6213 24.5634 25.2333 24.9505L18.4249 31.7588C18.3471 31.836 18.2547 31.8971 18.1532 31.9386C18.0517 31.9801 17.943 32.0011 17.8333 32.0005Z" fill="#4B4E68"/>
</g>
<defs>
<clipPath id="clip0_0_3657">
<rect width="20" height="20" fill="white" transform="translate(12 12)"/>
</clipPath>
</defs>
</svg>
