<svg width="16" height="18" viewBox="0 0 16 18" fill="none" xmlns="http://www.w3.org/2000/svg">
<path d="M13.25 6.318V5.25C13.25 3.85761 12.6969 2.52226 11.7123 1.53769C10.7277 0.553124 9.39239 0 8 0C6.60761 0 5.27226 0.553124 4.28769 1.53769C3.30312 2.52226 2.75 3.85761 2.75 5.25V6.318C2.08202 6.60953 1.51347 7.08939 1.11387 7.69891C0.714279 8.30842 0.500959 9.02118 0.5 9.75V14.25C0.501191 15.2442 0.896661 16.1973 1.59966 16.9003C2.30267 17.6033 3.2558 17.9988 4.25 18H11.75C12.7442 17.9988 13.6973 17.6033 14.4003 16.9003C15.1033 16.1973 15.4988 15.2442 15.5 14.25V9.75C15.499 9.02118 15.2857 8.30842 14.8861 7.69891C14.4865 7.08939 13.918 6.60953 13.25 6.318V6.318ZM4.25 5.25C4.25 4.25544 4.64509 3.30161 5.34835 2.59835C6.05161 1.89509 7.00544 1.5 8 1.5C8.99456 1.5 9.94839 1.89509 10.6517 2.59835C11.3549 3.30161 11.75 4.25544 11.75 5.25V6H4.25V5.25ZM14 14.25C14 14.8467 13.7629 15.419 13.341 15.841C12.919 16.2629 12.3467 16.5 11.75 16.5H4.25C3.65326 16.5 3.08097 16.2629 2.65901 15.841C2.23705 15.419 2 14.8467 2 14.25V9.75C2 9.15326 2.23705 8.58097 2.65901 8.15901C3.08097 7.73705 3.65326 7.5 4.25 7.5H11.75C12.3467 7.5 12.919 7.73705 13.341 8.15901C13.7629 8.58097 14 9.15326 14 9.75V14.25Z" fill="#4B4E68"/>
</svg>
