<svg width="20" height="11" viewBox="0 0 20 11" fill="none" xmlns="http://www.w3.org/2000/svg">
<path d="M10.0005 10.3079C9.45294 10.3089 8.91057 10.2019 8.40439 9.99317C7.89821 9.7844 7.43814 9.47792 7.05048 9.09124L0.242147 2.2829C0.0852269 2.12598 -0.00292969 1.91315 -0.00292969 1.69124C-0.00292969 1.46932 0.0852269 1.25649 0.242147 1.09957C0.399066 0.942649 0.611895 0.854492 0.833813 0.854492C1.05573 0.854492 1.26856 0.942649 1.42548 1.09957L8.23381 7.9079C8.70256 8.37607 9.33798 8.63904 10.0005 8.63904C10.663 8.63904 11.2984 8.37607 11.7671 7.9079L18.5755 1.09957C18.7324 0.942649 18.9452 0.854492 19.1671 0.854492C19.3891 0.854492 19.6019 0.942649 19.7588 1.09957C19.9157 1.25649 20.0039 1.46932 20.0039 1.69124C20.0039 1.91315 19.9157 2.12598 19.7588 2.2829L12.9505 9.09124C12.5628 9.47792 12.1027 9.7844 11.5966 9.99317C11.0904 10.2019 10.548 10.3089 10.0005 10.3079V10.3079Z" fill="#979AB8"/>
</svg>
